<?xml version="1.0" standalone="no"?>
<!DOCTYPE svg PUBLIC "-//W3C//DTD SVG 20010904//EN"
 "http://www.w3.org/TR/2001/REC-SVG-20010904/DTD/svg10.dtd">
<svg version="1.0" xmlns="http://www.w3.org/2000/svg"
 width="500.000000pt" height="500.000000pt" viewBox="0 0 500.000000 500.000000"
 preserveAspectRatio="xMidYMid meet">

<g transform="translate(0.000000,500.000000) scale(0.100000,-0.100000)"
fill="#000000" stroke="none">
<path d="M2209 3193 c0 -16 -5 -37 -10 -48 -7 -16 -8 -14 -4 10 3 17 0 37 -5
45 -8 11 -9 7 -4 -14 4 -18 3 -27 -3 -23 -5 3 -10 1 -11 -6 -1 -7 -31 -183
-67 -392 -35 -209 -65 -386 -65 -394 0 -21 84 -6 136 24 55 32 88 73 112 137
20 53 54 229 46 237 -2 2 -19 -12 -38 -32 -19 -21 -38 -37 -42 -37 -17 0 7
114 34 165 l30 55 -27 0 c-30 0 -94 31 -93 45 1 5 27 15 58 22 32 7 63 18 69
23 7 5 14 9 16 7 2 -1 -2 3 -9 9 -10 9 -9 13 4 18 10 4 22 2 28 -4 8 -8 5 -9
-9 -5 -16 5 -17 5 -5 -3 17 -13 33 -5 24 10 -5 7 -1 9 9 5 10 -4 22 1 30 13 8
11 18 17 23 12 5 -4 1 2 -9 14 -9 11 -14 24 -10 29 5 4 3 5 -4 2 -6 -4 -10
-18 -8 -32 1 -14 -2 -28 -8 -32 -6 -3 -7 -1 -3 5 4 6 -9 18 -31 29 -21 9 -47
25 -57 35 -11 10 -23 18 -28 18 -5 0 -18 15 -29 33 l-21 32 6 -39 c4 -30 3
-37 -7 -27 -6 6 -10 27 -8 46 1 19 0 35 -3 35 -3 0 -6 -12 -7 -27z"/>
<path d="M2655 2980 c-3 -5 -1 -10 4 -10 6 0 11 5 11 10 0 6 -2 10 -4 10 -3 0
-8 -4 -11 -10z"/>
<path d="M2632 2955 c4 -4 -2 -19 -12 -33 -22 -28 -28 -112 -8 -112 6 0 8 -3
5 -6 -11 -12 13 -43 45 -60 33 -17 124 -16 137 2 3 5 12 10 19 12 23 4 72 45
66 54 -3 5 -15 6 -27 3 -21 -6 -21 -5 -4 8 17 14 17 15 -6 13 -18 -1 -23 -6
-19 -20 4 -13 1 -17 -9 -14 -14 5 -15 9 -18 48 0 11 -6 20 -12 20 -6 0 -22 9
-36 20 -14 11 -30 17 -35 14 -6 -4 -15 0 -20 7 -7 11 -11 11 -15 2 -7 -18 -23
-16 -23 2 0 8 -5 15 -11 15 -5 0 -8 4 -4 9 3 5 0 13 -7 17 -7 4 -10 4 -6 -1z
m228 -159 c0 -2 -7 -7 -16 -10 -8 -3 -12 -2 -9 4 6 10 25 14 25 6z"/>
<path d="M2700 2949 c0 -5 5 -7 10 -4 6 3 10 8 10 11 0 2 -4 4 -10 4 -5 0 -10
-5 -10 -11z"/>
<path d="M2894 2883 c18 -22 48 -26 63 -8 5 4 2 5 -4 1 -8 -4 -13 -2 -13 6 0
10 -3 9 -10 -2 -7 -12 -12 -11 -32 5 l-23 20 19 -22z"/>
<path d="M2810 2870 c0 -5 10 -10 23 -10 18 0 19 2 7 10 -19 13 -30 13 -30 0z"/>
</g>
</svg>
